<?xml version="1.0" standalone="no"?><!DOCTYPE svg PUBLIC "-//W3C//DTD SVG 1.1//EN" "http://www.w3.org/Graphics/SVG/1.1/DTD/svg11.dtd"><svg t="1589650980632" class="icon" viewBox="0 0 1024 1024" version="1.1" xmlns="http://www.w3.org/2000/svg" p-id="3627" width="128" height="128" xmlns:xlink="http://www.w3.org/1999/xlink"><defs><style type="text/css"></style></defs><path d="M603.63 950.92c-10.97 0-19.75-2.2-30.71-4.39l-6.58-2.19-232.58-138.23c-19.75-4.39-52.66-10.97-68.02-10.97h-4.39L92.42 775.39c-50.46 0-92.15-43.88-92.15-94.34V373.88c0-50.46 41.69-92.15 92.15-94.35L283.3 253.2c21.94 0 43.88-4.39 65.82-10.97L566.33 86.46l4.39-2.19c28.52-10.97 61.43-6.58 85.57 10.97 24.13 17.55 39.49 46.08 39.49 76.79v682.35c0 30.72-15.36 59.24-39.49 76.79-13.16 13.16-32.91 19.75-52.66 19.75z m-6.58-68.02c8.77 2.19 15.36 0 21.94-4.39 6.58-4.39 10.97-13.16 10.97-21.94V174.22c0-8.77-4.39-17.55-10.97-24.13-6.58-4.39-15.36-6.58-21.94-4.39L382.03 301.48l-4.39 2.19c-28.52 10.97-59.24 15.36-89.96 15.36L96.81 345.36c-15.36 0-28.52 13.16-28.52 28.52v304.98c0 15.36 13.17 28.52 28.52 28.52h4.39l168.94 19.75c30.71 0 81.18 13.16 85.57 15.36l4.39 2.19L597.05 882.9z m0 0M860.34 825.85c-10.97 0-21.94-6.58-28.52-15.36-8.78-15.36-4.39-35.1 10.97-46.08 68.02-41.69 114.09-144.81 114.09-256.71 0-120.67-52.65-228.18-127.25-263.29-17.56-6.58-24.13-26.33-15.36-43.88 8.78-17.55 26.33-24.14 43.89-15.36 98.73 46.07 164.55 175.52 164.55 322.52 0 136.03-57.05 258.9-144.81 311.56-4.4 4.41-10.98 6.6-17.56 6.6z m0 0" fill="#323333" p-id="3628"></path></svg>