<svg id="财务管理" xmlns="http://www.w3.org/2000/svg" width="28" height="28.036" viewBox="0 0 28 28.036">
  <defs>
    <style>
      .cls-1 {
        fill: #fff;
      }
    </style>
  </defs>
  <path id="路径_145" data-name="路径 145" class="cls-1" d="M644.359,798.092H622.877a3.38,3.38,0,0,1-3.259-3.482V778.3a3.379,3.379,0,0,1,3.259-3.48h21.482a3.379,3.379,0,0,1,3.259,3.48v16.311a3.379,3.379,0,0,1-3.259,3.48Zm-21.482-21.88a2.027,2.027,0,0,0-1.955,2.088v16.311a2.027,2.027,0,0,0,1.955,2.088h21.482a2.028,2.028,0,0,0,1.955-2.088V778.3a2.027,2.027,0,0,0-1.955-2.088Z" transform="translate(-619.618 -770.057)"/>
  <path id="路径_146" data-name="路径 146" class="cls-1" d="M654.085,786.423h-9.892a1.393,1.393,0,0,1-1.392-1.392v-5.69a1.393,1.393,0,0,1,1.392-1.392h9.892a1.393,1.393,0,0,1,1.392,1.392v5.69A1.393,1.393,0,0,1,654.085,786.423Zm-9.892-7.081v5.69h9.89l0-5.69Zm-11.427-7.481-.538-1.283,10.739-4.519a3.485,3.485,0,0,1,4.559,1.857l1.408,3.346-1.284.539-1.408-3.345a2.089,2.089,0,0,0-2.735-1.113Z" transform="translate(-627.477 -765.787)"/>
  <path id="路径_147" data-name="路径 147" class="cls-1" d="M658.236,795.635a1.392,1.392,0,1,0,2.785,0h0a1.392,1.392,0,0,0-2.785,0Z" transform="translate(-639.296 -779.235)"/>
</svg>
