<svg xmlns="http://www.w3.org/2000/svg" width="25.84" height="29.624" viewBox="0 0 25.84 29.624">
  <defs>
    <style>
      .cls-1 {
        fill: #fff;
      }
    </style>
  </defs>
  <g id="保函管理" transform="translate(-2191.231 -7743.94)">
    <path id="路径_149" data-name="路径 149" class="cls-1" d="M778.2,779.257h12.59a.629.629,0,1,0,0-1.257H778.2a.629.629,0,0,0,0,1.257Z" transform="translate(1419.579 6972.959)"/>
    <path id="路径_150" data-name="路径 150" class="cls-1" d="M791.419,786.981a.631.631,0,0,0-.629-.628H778.2a.628.628,0,0,0,0,1.257h12.59A.631.631,0,0,0,791.419,786.981Z" transform="translate(1419.579 6969.012)"/>
    <path id="路径_151" data-name="路径 151" class="cls-1" d="M778.2,794.7a.629.629,0,0,0,0,1.257h5.037a.629.629,0,1,0,0-1.257Z" transform="translate(1419.579 6965.065)"/>
    <path id="路径_152" data-name="路径 152" class="cls-1" d="M779.009,793.882h-9.76a2.9,2.9,0,0,1-2.9-2.9V767.592a2.9,2.9,0,0,1,2.9-2.9H788.77a2.9,2.9,0,0,1,2.9,2.9v11.695a.659.659,0,0,1-1.318,0V767.592a1.585,1.585,0,0,0-1.583-1.583H769.249a1.585,1.585,0,0,0-1.583,1.583v23.389a1.585,1.585,0,0,0,1.583,1.583h9.76a.659.659,0,0,1,0,1.318Z" transform="translate(1424.884 6979.25)"/>
    <path id="路径_159" data-name="路径 159" class="cls-1" d="M803.665,801.458a2.076,2.076,0,1,1,2.076-2.076A2.078,2.078,0,0,1,803.665,801.458Zm0-3.308a1.232,1.232,0,1,0,1.233,1.232A1.233,1.233,0,0,0,803.665,798.15Z" transform="translate(1408.228 6963.835)"/>
    <path id="路径_160" data-name="路径 160" class="cls-1" d="M797.781,810.622a.417.417,0,0,1-.192-.046.422.422,0,0,1-.183-.568l3.312-6.431a1.186,1.186,0,0,1,1.9,0l.039.062,3.191,6.289a.422.422,0,1,1-.752.382l-3.172-6.25a.353.353,0,0,0-.51,0l-3.254,6.332A.422.422,0,0,1,797.781,810.622Z" transform="translate(1410.227 6961.096)"/>
    <path id="路径_161" data-name="路径 161" class="cls-1" d="M804.592,818.576h-8.115a1.247,1.247,0,0,1-1.246-1.245v-.058a1.247,1.247,0,0,1,1.246-1.246h8.115a1.247,1.247,0,0,1,1.246,1.246v.058A1.247,1.247,0,0,1,804.592,818.576Zm-8.115-1.706a.4.4,0,0,0-.4.4v.058a.4.4,0,0,0,.4.4h8.115a.4.4,0,0,0,.4-.4v-.058a.4.4,0,0,0-.4-.4Z" transform="translate(1411.233 6954.988)"/>
  </g>
</svg>
