<svg xmlns="http://www.w3.org/2000/svg" width="28" height="31.357" viewBox="0 0 28 31.357">
  <defs>
    <style>
      .cls-1 {
        fill: #fff;
      }
    </style>
  </defs>
  <g id="合同管理" transform="translate(-2078.271 -7743.94)">
    <path id="路径_137" data-name="路径 137" class="cls-1" d="M586.113,798.944a5.665,5.665,0,1,0,5.665,5.665A5.666,5.666,0,0,0,586.113,798.944Zm0,10.07a4.405,4.405,0,1,1,4.409-4.405,4.405,4.405,0,0,1-4.409,4.405Z" transform="translate(1514.493 6965.022)"/>
    <path id="路径_138" data-name="路径 138" class="cls-1" d="M564.095,779.257h14.183a.633.633,0,1,0,0-1.257H564.095a.633.633,0,1,0,0,1.257Z" transform="translate(1520.804 6973.449)"/>
    <path id="路径_142" data-name="路径 142" class="cls-1" d="M578.986,786.981a.675.675,0,0,0-.708-.628H564.095a.633.633,0,1,0,0,1.257h14.183A.675.675,0,0,0,578.986,786.981Z" transform="translate(1520.804 6969.808)"/>
    <path id="路径_143" data-name="路径 143" class="cls-1" d="M564.015,794.7a.629.629,0,0,0,0,1.257h5.037a.629.629,0,0,0,0-1.257Z" transform="translate(1521.324 6966.168)"/>
    <path id="路径_144" data-name="路径 144" class="cls-1" d="M591.443,806.791a.376.376,0,0,0-.313-.268l-1.34-.195-.6-1.213a.418.418,0,0,0-.717,0l-.6,1.213-1.339.195a.4.4,0,0,0-.222.682l.968.944-.23,1.334a.392.392,0,0,0,.159.389.4.4,0,0,0,.419.03l1.2-.629,1.2.629a.409.409,0,0,0,.186.044.39.39,0,0,0,.233-.077.394.394,0,0,0,.159-.389l-.23-1.334.968-.944A.4.4,0,0,0,591.443,806.791Zm-1.767.93a.4.4,0,0,0-.115.354l.127.744-.667-.351a.412.412,0,0,0-.372,0l-.667.351.127-.744a.4.4,0,0,0-.115-.354l-.54-.525.747-.109a.4.4,0,0,0,.3-.218l.334-.676.333.676a.4.4,0,0,0,.3.218l.747.109Z" transform="translate(1511.777 6962.203)"/>
    <path id="路径_148" data-name="路径 148" class="cls-1" d="M565.7,795.844H555.263a3.1,3.1,0,0,1-3.1-3.1V767.787a3.1,3.1,0,0,1,3.1-3.1h20.872a3.1,3.1,0,0,1,3.1,3.1v12.48a.7.7,0,0,1-1.41,0v-12.48a1.693,1.693,0,0,0-1.693-1.69H555.263a1.693,1.693,0,0,0-1.693,1.69v24.961a1.693,1.693,0,0,0,1.693,1.69H565.7a.7.7,0,1,1,0,1.407Z" transform="translate(1526.11 6979.25)"/>
  </g>
</svg>
