<svg xmlns="http://www.w3.org/2000/svg" width="30" height="31.28" viewBox="0 0 30 31.28">
  <defs>
    <style>
      .cls-1 {
        fill: #fff;
      }
    </style>
  </defs>
  <path id="海外项目管理" class="cls-1" d="M983.124,794.091a.6.6,0,0,1-.2-.033l-3.165-1.1a.6.6,0,0,1,.4-1.141l2.363.818v-.927l-1.925-1.751a.6.6,0,0,1-.188-.55,4.479,4.479,0,0,0,.075-.757c0-.013,0-.025,0-.037l.371-5.933a.6.6,0,0,1,.87-.5l10.566,5.227v-2.193l-11.025-9.652a.6.6,0,0,1-.206-.455v-7.3a5.025,5.025,0,0,0-.829-2.52,1.818,1.818,0,0,0-3.463,0,5.034,5.034,0,0,0-.829,2.52v7.3a.6.6,0,0,1-.206.455l-11.025,9.651V787.4l10.372-5.218a.6.6,0,0,1,.874.5l.46,6.42c0,.014,0,.028,0,.043a3.229,3.229,0,0,0,.026.342l.005.046a.6.6,0,0,1-.195.513l-1.845,1.672v.922l1.925-.676a2.066,2.066,0,0,1,2.507.8.6.6,0,0,1-1,.676.836.836,0,0,0-.648-.41,1.048,1.048,0,0,0-.409.054.279.279,0,0,1-.034.013l-2.745.964a.6.6,0,0,1-.8-.57v-2.043a.6.6,0,0,1,.2-.448l1.818-1.647c0-.06-.007-.122-.007-.186l-.394-5.5-10.439,5.251a.6.6,0,0,1-.875-.54v-3.44a.6.6,0,0,1,.206-.454l11.025-9.652V767.8a6.22,6.22,0,0,1,1.025-3.18,2.983,2.983,0,0,1,5.487,0,6.224,6.224,0,0,1,1.024,3.18v7.029l11.025,9.652a.6.6,0,0,1,.206.454v3.44a.6.6,0,0,1-.872.541L982,783.664l-.313,5.009a5.091,5.091,0,0,1-.042.611L983.531,791a.6.6,0,0,1,.2.447v2.043a.6.6,0,0,1-.6.6Z" transform="translate(-963.499 -762.811)"/>
</svg>
