<svg xmlns="http://www.w3.org/2000/svg" width="30" height="29.493" viewBox="0 0 30 29.493">
  <defs>
    <style>
      .cls-1 {
        fill: #fff;
      }
    </style>
  </defs>
  <g id="报表管理" transform="translate(-2256.462 -7742.4)">
    <path id="路径_165" data-name="路径 165" class="cls-1" d="M919.384,817.389h-28.7a.659.659,0,0,1,0-1.319h28.7a.659.659,0,0,1,0,1.319Z" transform="translate(1366.429 6954.504)"/>
    <g id="组_244" data-name="组 244" transform="translate(2260.118 7742.4)">
      <path id="路径_166" data-name="路径 166" class="cls-1" d="M898.02,803.646a1.055,1.055,0,0,1-1.055-1.055v-7.475a1.055,1.055,0,0,1,2.11,0v7.475A1.055,1.055,0,0,1,898.02,803.646Z" transform="translate(-896.965 -777.495)"/>
      <path id="路径_167" data-name="路径 167" class="cls-1" d="M911.325,795.608a1.054,1.054,0,0,1-1.055-1.055V778.109a1.055,1.055,0,0,1,2.11,0v16.445A1.055,1.055,0,0,1,911.325,795.608Z" transform="translate(-903.409 -769.457)"/>
      <path id="路径_168" data-name="路径 168" class="cls-1" d="M937.815,788.054a1.177,1.177,0,0,1-1.187-1.166V762.936a1.187,1.187,0,0,1,2.373,0v23.952A1.177,1.177,0,0,1,937.815,788.054Z" transform="translate(-916.181 -761.77)"/>
      <path id="路径_169" data-name="路径 169" class="cls-1" d="M924.51,799.072a1.187,1.187,0,0,1-1.187-1.187v-12.6a1.187,1.187,0,0,1,2.373,0v12.6A1.187,1.187,0,0,1,924.51,799.072Z" transform="translate(-909.735 -772.788)"/>
    </g>
  </g>
</svg>
