<svg xmlns="http://www.w3.org/2000/svg" width="26" height="30.21" viewBox="0 0 26 30.21">
  <defs>
    <style>
      .cls-1 {
        fill: #fff;
      }
    </style>
  </defs>
  <g id="质安管理" transform="translate(-2224.717 -7744.52)">
    <path id="路径_162" data-name="路径 162" class="cls-1" d="M842.5,765.832a.613.613,0,0,1,.438,0l12.5,4.7a.617.617,0,0,1,.4.576q.01,10.511,0,12.753a.632.632,0,0,1-.024.167c-.378,1.317-1.9,3.1-4.352,5.326-.631.574-1.317,1.169-2.05,1.784q-1.766,1.479-3.744,2.987-.712.545-1.431,1.082l-.9.673a.617.617,0,0,1-.662.05q-9.966-5.347-12.781-11.827a.613.613,0,0,1-.051-.244V771.107a.615.615,0,0,1,.4-.575l12.263-4.7Zm.223,1.234-11.648,4.465v12.2q2.605,5.876,11.838,10.928l.586-.437q.713-.533,1.42-1.074,1.954-1.5,3.7-2.954c.722-.6,1.4-1.189,2.013-1.751,2.22-2.018,3.634-3.658,3.972-4.678q.01-2.3,0-12.228l-11.882-4.468Z" transform="translate(1394.876 6978.73)"/>
    <path id="路径_163" data-name="路径 163" class="cls-1" d="M843.7,791.6a.6.6,0,1,1,0-1.207h10.6a.6.6,0,1,1,0,1.207Z" transform="translate(1388.877 6967.38)"/>
    <path id="路径_164" data-name="路径 164" class="cls-1" d="M853.15,780.951a.6.6,0,1,1,1.208,0v10.6a.6.6,0,0,1-1.208,0v-10.6Z" transform="translate(1384.125 6972.112)"/>
  </g>
</svg>
