<svg id="流程管理" xmlns="http://www.w3.org/2000/svg" width="30" height="30.98" viewBox="0 0 30 30.98">
  <defs>
    <style>
      .cls-1 {
        fill: #fff;
      }
    </style>
  </defs>
  <path id="路径_170" data-name="路径 170" class="cls-1" d="M1058.91,785.883a14.326,14.326,0,0,0-10.155-17.622,3.768,3.768,0,0,0-7.3,0,14.4,14.4,0,0,0-7.573,4.959,14.319,14.319,0,0,0-2.575,12.693,3.768,3.768,0,0,0,3.71,6.342,14.295,14.295,0,0,0,20.186-.02,3.768,3.768,0,0,0,3.706-6.352Zm-13.8-18.944a2.26,2.26,0,1,1-2.26,2.26A2.263,2.263,0,0,1,1045.106,766.94Zm-13.175,22.851a2.252,2.252,0,1,1,1.959,1.131A2.264,2.264,0,0,1,1031.931,789.791Zm13.175,5.116a12.668,12.668,0,0,1-8.719-3.429,3.767,3.767,0,0,0-2.5-6.582,3.689,3.689,0,0,0-1.225.207,12.813,12.813,0,0,1,8.739-15.258,3.765,3.765,0,0,0,7.42,0,12.82,12.82,0,0,1,8.745,15.234,3.757,3.757,0,0,0-4.47,1.684,3.77,3.77,0,0,0,.754,4.694,12.654,12.654,0,0,1-8.739,3.449Zm13.2-5.13a2.271,2.271,0,0,1-1.958,1.132,2.227,2.227,0,0,1-1.125-.3,2.261,2.261,0,0,1,1.132-4.219,2.225,2.225,0,0,1,1.125.3A2.263,2.263,0,0,1,1058.311,789.777Z" transform="translate(-1030.118 -765.433)"/>
</svg>
