<svg id="投标" xmlns="http://www.w3.org/2000/svg" width="26.084" height="26.318" viewBox="0 0 26.084 26.318">
  <defs>
    <style>
      .cls-1 {
        fill: #fff;
      }
    </style>
  </defs>
  <path id="路径_171" data-name="路径 171" class="cls-1" d="M413.129,796.806c-.132,0-.264,0-.4-.01a7.516,7.516,0,1,1,3.678-14.269.609.609,0,0,1-.533,1.1A6.3,6.3,0,1,0,418.5,786a.609.609,0,1,1,1.039-.636,7.517,7.517,0,0,1-6.407,11.441Z" transform="translate(-400.083 -776.013)"/>
  <path id="路径_172" data-name="路径 172" class="cls-1" d="M407.312,796.518a13.042,13.042,0,1,1,5.077-25.059.609.609,0,0,1-.475,1.122,11.825,11.825,0,1,0,5.147,4.2.609.609,0,1,1,1-.69,13.043,13.043,0,0,1-10.752,20.425Z" transform="translate(-394.27 -770.2)"/>
  <circle id="椭圆_75" data-name="椭圆 75" class="cls-1" cx="1.727" cy="1.727" r="1.727" transform="translate(11.315 11.55)"/>
  <rect id="矩形_100" data-name="矩形 100" class="cls-1" width="17.232" height="1.369" rx="0.684" transform="translate(12.437 13.227) rotate(-50.138)"/>
</svg>
