<?xml version="1.0" standalone="no"?><!DOCTYPE svg PUBLIC "-//W3C//DTD SVG 1.1//EN" "http://www.w3.org/Graphics/SVG/1.1/DTD/svg11.dtd"><svg class="icon" width="200px" height="200.00px" viewBox="0 0 1024 1024" version="1.1" xmlns="http://www.w3.org/2000/svg"><path fill="#333333" d="M101.4 202.8h820.8c20.6 0 37.3-16.7 37.3-37.3 0-20.6-16.7-37.3-37.3-37.3H101.4c-20.6 0-37.3 16.7-37.3 37.3-0.1 20.8 16.7 37.3 37.3 37.3zM921.9 475H437.4c-20.8 0-37.6 16.7-37.6 37.3 0 9.9 4 19.5 11 26.5 7.1 7 16.6 10.9 26.5 10.9h484.5c20.8 0 37.6-16.7 37.6-37.3 0.1-20.8-16.7-37.4-37.5-37.4zM922.2 818.8H101.4c-20.6 0-37.3 16.7-37.3 37.3 0 20.7 16.7 37.3 37.3 37.3h820.8c20.6 0 37.3-16.7 37.3-37.3 0-20.6-16.7-37.3-37.3-37.3zM314.8 299.9c-14.4-14.4-37.7-14.6-52.3-0.5L76 486c-14.6 14.6-14.6 38.2 0 52.8l186.6 186.6c14.6 14.1 37.9 13.9 52.3-0.5s14.6-37.7 0.5-52.3L155.1 512.3l160.2-160.2c14.1-14.6 13.9-37.9-0.5-52.2z"  /></svg>