<svg xmlns="http://www.w3.org/2000/svg" width="24" height="24.079" viewBox="0 0 24 24.079">
  <defs>
    <style>
      .cls-1 {
        fill: #fff;
        opacity: 0.64;
      }
    </style>
  </defs>
  <path id="首页" class="cls-1" d="M108.115,111.048l9.263-6.648a2.211,2.211,0,0,1,2.578,0l9.263,6.648a3.474,3.474,0,0,1,1.448,2.822v10.721a3.474,3.474,0,0,1-3.474,3.474H110.141a3.474,3.474,0,0,1-3.474-3.474V113.87a3.474,3.474,0,0,1,1.448-2.822Zm1.1,1.539a1.579,1.579,0,0,0-.658,1.283v10.721a1.579,1.579,0,0,0,1.579,1.579h17.053a1.579,1.579,0,0,0,1.579-1.579V113.87a1.579,1.579,0,0,0-.658-1.283l-9.263-6.648a.316.316,0,0,0-.368,0l-9.263,6.649Z" transform="translate(-106.667 -103.985)"/>
</svg>
