<svg id="更多符号" xmlns="http://www.w3.org/2000/svg" width="15.981" height="16.82" viewBox="0 0 15.981 16.82">
  <defs>
    <style>
      .cls-1 {
        fill: #357ef7;
      }
    </style>
  </defs>
  <path id="路径_42" data-name="路径 42" class="cls-1" d="M3.469,16.82a.438.438,0,0,1-.287-.769L12.03,8.41,3.183.769A.438.438,0,1,1,3.755.107l9.231,7.972a.438.438,0,0,1,0,.663L3.756,16.714a.437.437,0,0,1-.286.106Z" transform="translate(-3.031 0)"/>
  <path id="路径_43" data-name="路径 43" class="cls-1" d="M361.087,16.82a.438.438,0,0,1-.287-.769l8.847-7.64L360.8.769a.438.438,0,1,1,.573-.663L370.6,8.079a.438.438,0,0,1,0,.663l-9.231,7.972a.437.437,0,0,1-.286.106Z" transform="translate(-354.775 0)"/>
</svg>
