<svg xmlns="http://www.w3.org/2000/svg" width="28.146" height="29.392" viewBox="0 0 28.146 29.392">
  <defs>
    <style>
      .cls-1 {
        fill: #fff;
      }
    </style>
  </defs>
  <g id="授权管理" transform="translate(-38 -606)">
    <path id="路径_156" data-name="路径 156" class="cls-1" d="M711.937,778.988a7.661,7.661,0,1,1,7.661-7.662A7.67,7.67,0,0,1,711.937,778.988Zm0-14a6.343,6.343,0,1,0,6.342,6.342A6.35,6.35,0,0,0,711.937,764.983Z" transform="translate(-660.275 -157.665)"/>
    <path id="路径_157" data-name="路径 157" class="cls-1" d="M732.692,813.7a.7.7,0,0,1-.5-.207l-2.815-2.826a.71.71,0,0,1,0-1,.7.7,0,0,1,1,0l2.317,2.326,4.428-4.445a.7.7,0,0,1,.995,0,.708.708,0,0,1,0,1l-4.925,4.946A.7.7,0,0,1,732.692,813.7Z" transform="translate(-672.174 -178.306)"/>
    <path id="路径_158" data-name="路径 158" class="cls-1" d="M692.6,804.908a.659.659,0,0,1-.659-.659,14.171,14.171,0,0,1,26.681-6.656.659.659,0,1,1-1.164.62,12.853,12.853,0,0,0-24.2,6.036A.659.659,0,0,1,692.6,804.908Z" transform="translate(-653.936 -170.148)"/>
  </g>
</svg>
