<svg id="项目管理" xmlns="http://www.w3.org/2000/svg" width="28" height="26.52" viewBox="0 0 28 26.52">
  <defs>
    <style>
      .cls-1 {
        fill: #fff;
      }
    </style>
  </defs>
  <path id="路径_133" data-name="路径 133" class="cls-1" d="M478.257,789.191a1.129,1.129,0,1,0,0-1.6,1.13,1.13,0,0,0,0,1.6Z" transform="translate(-472.899 -778.508)"/>
  <path id="路径_135" data-name="路径 135" class="cls-1" d="M477.935,806.894a1.129,1.129,0,1,0,.935-1.3,1.129,1.129,0,0,0-.935,1.3Z" transform="translate(-472.896 -787.176)"/>
  <path id="路径_139" data-name="路径 139" class="cls-1" d="M488.124,789.68h12.589a.628.628,0,1,0,0-1.257H488.124a.628.628,0,1,0,0,1.257Z" transform="translate(-477.44 -779.057)"/>
  <path id="路径_140" data-name="路径 140" class="cls-1" d="M488.124,807.791h12.589a.628.628,0,1,0,0-1.257H488.124a.628.628,0,1,0,0,1.257Z" transform="translate(-477.44 -787.624)"/>
  <path id="路径_141" data-name="路径 141" class="cls-1" d="M488.124,798.736h12.589a.628.628,0,1,0,0-1.257H488.124a.628.628,0,1,0,0,1.257Z" transform="translate(-477.44 -783.341)"/>
  <path id="路径_153" data-name="路径 153" class="cls-1" d="M474.5,771.865a3.6,3.6,0,0,1,2.4.914l1.875,1.675a2.7,2.7,0,0,0,1.8.687h.026l11.817-.114a2.765,2.765,0,0,1,2.757,2.757V793.2a2.765,2.765,0,0,1-2.757,2.757H472.359A2.765,2.765,0,0,1,469.6,793.2V774.622a2.765,2.765,0,0,1,2.757-2.757H474.5m0-1.216h-2.141a3.977,3.977,0,0,0-3.973,3.973V793.2a3.977,3.977,0,0,0,3.973,3.973h20.054a3.977,3.977,0,0,0,3.973-3.973V777.784a3.977,3.977,0,0,0-3.973-3.973l-11.828.114h0a1.5,1.5,0,0,1-1-.378l-1.876-1.675a4.806,4.806,0,0,0-3.2-1.223Z" transform="translate(-468.386 -770.649)"/>
</svg>
