<?xml version="1.0" standalone="no"?><!DOCTYPE svg PUBLIC "-//W3C//DTD SVG 1.1//EN" "http://www.w3.org/Graphics/SVG/1.1/DTD/svg11.dtd"><svg class="icon" width="200px" height="200.00px" viewBox="0 0 1024 1024" version="1.1" xmlns="http://www.w3.org/2000/svg"><path fill="#333333" d="M922.2 202.8H101.3c-20.6 0-37.3-16.7-37.3-37.3 0-20.6 16.7-37.3 37.3-37.3h820.8c20.6 0 37.3 16.7 37.3 37.3 0.1 20.8-16.6 37.3-37.2 37.3zM101.6 475h484.5c20.8 0 37.6 16.7 37.6 37.3 0 9.9-4 19.5-11 26.5-7.1 7-16.6 10.9-26.5 10.9H101.6C80.8 549.7 64 533 64 512.4c0-20.8 16.9-37.4 37.6-37.4zM101.3 818.8h820.8c20.6 0 37.3 16.7 37.3 37.3 0 20.7-16.7 37.3-37.3 37.3H101.3c-20.6 0-37.3-16.7-37.3-37.3 0-20.6 16.7-37.3 37.3-37.3zM708.7 299.9c14.4-14.4 37.7-14.6 52.3-0.5L947.5 486c14.6 14.6 14.6 38.2 0 52.8L761 725.3c-14.6 14.1-37.9 13.9-52.3-0.5s-14.6-37.7-0.5-52.3l160.2-160.2-160.2-160.1c-14.1-14.7-13.9-38 0.5-52.3z"  /></svg>