<svg xmlns="http://www.w3.org/2000/svg" width="200" height="200" viewBox="0 0 46 30">
  <defs>
    <style>
      .cls-1 {
        fill: #707070;
      }
    </style>
  </defs>
  <path id="到期提醒信息" class="cls-1" d="M45.97,205.407s0-.01,0-.014v-2.247l-.056-.178c-.621-1.968-2.07-3.239-3.691-3.239H3.674a4.068,4.068,0,0,0-2.374.77A3.079,3.079,0,0,0,0,203.016V226.3a3.613,3.613,0,0,0,3.674,3.427h38.55a4.342,4.342,0,0,0,3.671-2.764L46,226.73V205.675A1.244,1.244,0,0,0,45.97,205.407ZM23.6,214.048a1.134,1.134,0,0,1-1.3,0l-3.955-2.8,0,0L5.271,202H40.626ZM2.106,226.3V203.016a.69.69,0,0,1,.158-.425l13.768,9.742L2.108,226.34C2.107,226.327,2.106,226.315,2.106,226.3Zm15.739-12.686,3.3,2.335.007,0a3.116,3.116,0,0,0,3.592,0l3.552-2.513,13.781,14.014H4.086Zm12.262-1.454,13.328-9.43a3.287,3.287,0,0,1,.43.8v1.857a1.225,1.225,0,0,0,.029.267s0,.01,0,.015v20.506Z" transform="translate(0 -199.729)"/>
</svg>
